<svg width="1024" height="1024" viewBox="0 0 1024 1024" fill="none" xmlns="http://www.w3.org/2000/svg">
<rect width="1024" height="1024" rx="50" fill="#1BAE80"/>
<path d="M299.613 664.989H636.592L615.542 640.978L636.592 614.435H307.696C286.191 645.941 289.259 661.643 299.613 664.989Z" fill="white"/>
<path d="M290.959 664.989C280.595 661.778 277.524 646.71 299.051 616.476L433.323 522.13L430.794 494.145L403.316 483.588L243 597.791L278.062 656.523C279.815 658.873 284.849 663.851 290.959 664.989Z" fill="white"/>
<path d="M772.349 580.491L543.393 453L502 482.507L725.596 607.28C761.894 610.549 774.683 590.566 772.349 580.491Z" fill="white"/>
<path d="M779.351 585.255C781.819 596.216 768.289 617.957 729.886 614.401H650.389L627.429 640.733L650.792 665H742.623L778.105 601.907C779.316 599.114 781.488 591.323 779.351 585.255Z" fill="white"/>
<path d="M443.262 482.836V513.37L533.554 445.759L522.108 359L498.03 359L494.558 416.535L414.037 472.629L443.262 482.836Z" fill="white"/>
</svg>
